<?xml version="1.0" encoding="utf-8"?>
<!-- Generator: Adobe Illustrator 19.2.1, SVG Export Plug-In . SVG Version: 6.00 Build 0)  -->
<svg version="1.1" id="Layer_1" xmlns="http://www.w3.org/2000/svg" xmlns:xlink="http://www.w3.org/1999/xlink" x="0px" y="0px"
	 viewBox="0 0 640 676" style="enable-background:new 0 0 640 676;" xml:space="preserve">
<style type="text/css">
	.st0{fill:#FFFFFF;}
</style>
<g>
	<path class="st0" d="M222.4,122.2c16.7-41,45.8-64.9,90.4-64.7c44.1,0.2,72.8,24.1,89.3,64.6c0.9-0.3,2.1-0.7,3.2-1.2
		c19.6-9,40-11,60.9-6.2c3,0.7,4.4-0.1,6.2-2.3C484.8,97.3,501,91.3,520,95.7c18.4,4.3,30.5,16.4,34.8,34.8
		c4.4,19.1-1.6,35.2-16.8,47.6c-2.2,1.8-2.9,3.2-2.3,6.2c7.2,33.8-1.1,63.4-25.3,88.2c-20.3,20.7-40.9,41.1-61.5,61.5
		c-1.3,1.3-2.8,2.3-4.5,3.7c1.8,1.9,3,3.2,4.2,4.5c20.8,20.9,41.9,41.6,62.5,62.6c51,52,27,138.6-43.5,156.8
		c-22.7,5.9-44.6,3.1-65.7-7.2c-17.7,43.1-49,67.2-96.3,64.5c-41.4-2.4-68.4-26.2-83.4-64.7c-15.5,7.8-32,11.3-49.3,10
		c-5.1-0.4-10.3-1.1-15.3-2.3c-2.8-0.7-4.1,0-5.8,2.1c-12.8,15.6-32.1,21.6-50.6,15.8c-18.5-5.8-31.5-21.8-32.8-41.7
		c-1-15.6,4.7-28.8,16.8-38.8c3.2-2.6,3.7-4.8,3-8.7c-6.6-33.3,1.9-62.4,25.7-86.6c20.3-20.7,41-41,61.5-61.6
		c1.3-1.3,2.5-2.6,3.9-4.1c-1.4-1.5-2.6-2.8-3.9-4.1c-20.8-20.9-41.9-41.6-62.5-62.6c-51-51.9-26.7-138.8,43.8-156.7
		c20.5-5.2,40.6-3.5,60.1,4.9C218.7,120.5,220.5,121.4,222.4,122.2z M431.5,351.3c-8.3,8.4-16.2,16.2-23.9,24.3
		c-1.1,1.2-1.5,3.6-1.5,5.5c-0.1,13.2,0,26.3-0.1,39.5c-0.1,37.1-0.2,74.3-0.2,111.4c0,1.5,1.5,3.6,2.8,4.4
		c14.6,8.3,30.4,11.2,46.8,8.5c30-5,50.9-22.1,60.3-51c9.3-28.7,2.5-54.5-18.4-76.4c-6.3-6.6-12.9-13-19.4-19.5
		C462.7,382.6,447.4,367.3,431.5,351.3z M193.1,324.9c7.5-7.5,15-14.8,22.2-22.4c1.7-1.8,3-4.8,3-7.3c0.2-28.8,0.1-57.6,0.1-86.4
		c0-21,0-42,0.3-62.9c0-3.2-0.9-4.7-3.5-6.1c-31.6-17.4-73.3-8.3-95,20.8c-23.1,31-20,71.5,7.9,99.6c20.5,20.7,41.2,41.2,61.8,61.8
		C190.7,322.9,191.7,323.7,193.1,324.9z M161.7,543.6c16.2,3.7,31.6,2.6,46.7-3.6c10.1-4.1,10-4.2,10-14.9
		c0-45.2-0.3-90.3,0.2-135.5c0.1-9.1-1.9-15.8-9-21.6c-6-4.9-11-10.9-16.6-16.6c-22.1,22.1-43.5,43.5-64.9,65
		c-1.9,1.9-3.7,3.8-5.4,5.9c-14.4,17.2-19.8,37-17.1,59.1c0.3,2.5,1.1,5,1.7,7.5C139.3,484.3,166.2,509.9,161.7,543.6z M431.3,324.7
		c0.7-0.5,1.2-0.7,1.5-1c22.4-22.4,45.1-44.5,67-67.3c16-16.7,21.7-37.4,19.2-60.3c-0.3-2.9-1.1-5.7-1.7-8.5
		c-29.5,4.9-59.4-18-54.9-54.3c-0.9-0.3-1.8-0.7-2.7-0.9c-16-3-31.4-1.2-46.4,5.3c-5.7,2.5-9.3,5.3-7.5,12.1c0.5,2,0.1,4.3,0.1,6.5
		c0,46.1,0,92.3,0,138.4c0,1.9-0.1,4.5,1,5.6C415,308.6,423.2,316.6,431.3,324.7z M312.1,232.3c-24.7,24.7-48.9,48.9-73.1,73.3
		c-1.2,1.2-1.7,3.5-1.7,5.4c-0.1,18.2-0.2,36.3,0.1,54.5c0,2.3,1.3,5.2,2.9,6.8c22.8,23.1,45.8,46,68.8,69c1,1,2.1,1.9,3.4,2.9
		c24.6-24.6,48.8-48.8,73-73.2c1.2-1.2,1.7-3.5,1.7-5.4c0.1-18.2,0.2-36.3-0.1-54.5c0-2.3-1.3-5.2-2.9-6.8
		c-22.7-23-45.6-45.8-68.5-68.6C314.7,234.7,313.5,233.7,312.1,232.3z M312.9,206.6c1.5-2.1,2.5-3.9,3.8-5.3
		c21.5-21.6,43.1-43.1,64.9-64.5c2.7-2.6,3.4-4.5,2.3-8c-9.5-30.5-36.8-51.4-69.2-52.9C284,74.5,255,93.3,243,122.2
		c-4.2,10.2-4.2,10.2,3.6,18c9.9,9.9,19.8,19.8,29.7,29.7C288.1,181.7,299.8,193.5,312.9,206.6z M311.8,470.5
		c-1.5,1.9-2.6,3.4-3.9,4.6c-21.4,21.4-42.7,43-64.4,64.1c-3.5,3.4-3.9,5.9-2.5,10.2c10.2,30.3,38.1,50.7,70.3,51.3
		c33,0.6,63.6-21.9,72.5-53.6c0.5-1.8-0.1-4.7-1.3-5.9c-13.1-13.3-26.4-26.4-39.6-39.5C332.9,491.6,322.8,481.4,311.8,470.5z
		 M237.5,278.3c19.9-19.9,40.1-40.1,59.2-59.2c-19.6-19.6-39.7-39.7-59.2-59.2C237.5,198.9,237.5,239.1,237.5,278.3z M387,158.4
		c-20.5,20.5-40.6,40.6-59.7,59.8c20,20,40.2,40.2,59.7,59.7C387,239,387,198.8,387,158.4z M297.5,457.6
		c-19.7-19.7-39.8-39.9-59.9-60c0,39.9,0,80.2,0,120C257.5,497.5,277.7,477.4,297.5,457.6z M327,457.7c19.7,19.7,39.9,39.9,59.9,60
		c0-39.9,0-80.2,0-120.2C366.8,417.7,346.7,437.9,327,457.7z M509.1,169.5c15.5,0,28-12.4,28.1-27.8c0.1-15.6-12.6-28.3-28.2-28.3
		c-15.5,0-27.9,12.4-28,27.9C481,157,493.4,169.5,509.1,169.5z M115.5,507.2c-15.5,0-28.1,12.2-28.2,27.6
		c-0.2,15.7,12.4,28.4,28,28.5c15.5,0.1,28-12.3,28.2-27.7C143.5,519.7,131.2,507.2,115.5,507.2z M416.9,338.6
		c-3.4-3.3-7.1-7-10.5-10.4c0,6.5,0,13.7,0,20.6C410,345.3,413.6,341.8,416.9,338.6z M207.1,337.9c3.6,3.8,7.2,7.6,10.8,11.4
		c0-7.5,0-14.7,0-21.7C214.1,331.2,210.4,334.7,207.1,337.9z"/>
	<path class="st0" d="M265.3,338.3c0-25.9,21.2-47,47.1-46.9c25.7,0.1,46.7,21.2,46.7,46.9c0,25.7-21,46.8-46.6,47
		C286.6,385.3,265.3,364.2,265.3,338.3z M284.2,338.3c0,15.5,12.4,28,27.8,28c15.7,0.1,28.3-12.4,28.3-28.1c0-15.5-12.4-28-27.8-28
		C296.7,310.2,284.2,322.6,284.2,338.3z"/>
</g>
</svg>
