<?xml version="1.0" encoding="utf-8"?>
<!-- Generator: Adobe Illustrator 19.2.1, SVG Export Plug-In . SVG Version: 6.00 Build 0)  -->
<svg version="1.1" id="Layer_1" xmlns="http://www.w3.org/2000/svg" xmlns:xlink="http://www.w3.org/1999/xlink" x="0px" y="0px"
	 viewBox="0 0 712 744" style="enable-background:new 0 0 712 744;" xml:space="preserve">
<style type="text/css">
	.st0{fill:#FFFFFF;}
</style>
<g>
	<path class="st0" d="M125.4,525.6c0.1-90.2,53.4-162.2,141.4-191c34.2-11.2,69.4-15.6,105.1-17.1c27.5-1.1,55-1.4,82.3,3
		c49.7,8.1,95.8,24.6,127.9,65.7c36.6,46.8,46.5,99,23.1,155.2c-6.6,15.9-17,29.5-31.7,39c-19.9,13-40.5,14.4-61.1,1.6
		c-24.7-15.5-49.6-16.1-75.2-2.3c-22.7,12.2-43.8,26.5-62.8,44c-12.5,11.5-25.2,22.8-38.5,33.4c-24.1,19.2-51.5,29.5-82.6,26.1
		c-57.5-6.3-97.1-36.2-117-91.1C128.7,570.7,125.4,548.4,125.4,525.6z M192.3,630.7c0.6,0.7,1.3,1.5,2.1,2.3
		c32.8,28.9,84.8,32.2,120.5,6.8c12.2-8.6,22.9-19.3,34.5-28.8c15.4-12.7,31-25.2,46.6-37.6c1.3-1,3.7-0.6,4.9-0.8
		c1-1.4,1.7-3.4,3.1-4.2c8.6-5,17.3-10.1,26.2-14.5c11.6-5.7,23.8-9.5,36.7-10.5c21.1-1.6,40.1,4.8,57.9,15.4
		c13.7,8.2,24.8,7.4,37.2-2.8c9.9-8.1,16.9-18.5,21.1-30.5c16.6-47.9,6-90.7-26.2-128.4c-20.3-23.7-47.5-36.6-77.1-44.6
		c-11-3-22.1-6.7-33.8-5c-24.4,3.6-47.9,10.1-69.9,21.2c-26.6,13.3-49.1,31.4-61,59.4c-7.3,17.1-12.4,35.1-17.8,52.9
		c-7.7,25.5-14.1,51.4-25,75.8c-11.7,26.2-28.3,48.3-54.1,62.1C210.1,623.5,201.2,626.8,192.3,630.7z M362.5,344.3
		c-14.3,1.8-29.4,0.6-43.4,8.7c-38.8,22.6-66.3,54.6-81.6,96.8c-5.6,15.3-9.1,31.3-14,46.8c-10.8,34.4-30.5,61.5-63.9,77.2
		c-0.4,0.2-0.6,0.7-1.7,1.9c4.3,9.4,8.7,19.3,13.4,28.9c0.6,1.2,2.8,2.5,4,2.3c22.5-4.8,42-14.7,56.6-32.9
		c12.1-15,19.6-32.4,25.3-50.6c8.7-27.8,16.8-55.7,25.2-83.6c8.1-27.1,21.6-51,43.5-69.2C337.5,361.1,350.3,353.1,362.5,344.3z
		 M152.8,546.4c0.9,0.1,1.3,0.3,1.5,0.2c1.2-0.6,2.4-1.2,3.5-1.9c13.4-8.2,24.3-19,30.8-33.2c5.9-12.9,11.2-26.4,14.7-40.1
		c8.6-33.7,21.9-64.8,44.2-91.8c3.7-4.5,7.7-8.9,11.6-13.3c-37.8,15.4-67.8,40.1-87.4,76.1C154,474.7,149,509.9,152.8,546.4z"/>
	<path class="st0" d="M234.7,160.1c46.1-32,98.6-46.5,152.6-56.5c35.3-6.6,71-9.4,106.9-8.2c52,1.7,97.3,18.9,134.1,56.4
		c6.9,7,13.8,14,20.5,21.2c5.1,5.6,5.3,12.6,0.3,18.1c-16.1,17.6-32.9,34.5-52.9,47.8c-27.3,18.3-57.8,27.3-90.2,29.2
		c-79.6,4.7-156.3-8.8-229.6-40.1c-14.6-6.2-28.1-15-42.1-22.7c-3.6,5-7.5,11.1-12,16.6c-22.2,27-51.4,41.8-85.4,47.4
		c-10,1.7-20.2,2.3-30.3,2.8c-12.6,0.7-18.4-6.5-15.7-19c6.1-28.2,21.6-50.1,45.2-66.5c2-1.4,4.1-2.7,6.6-4.4
		c-4.5-3.2-8.7-5.9-12.7-9.1c-20.4-16-33.7-36.6-39.1-62c-2.6-12.4,2.8-19,15.4-18.8c32.1,0.4,62.4,7.3,89.4,25.6
		c14.8,10.1,26.9,22.8,36.4,38C233,157.5,233.9,158.8,234.7,160.1z M249.8,181.6c32.5,33.9,182.9,70.4,248.2,60.5c0-1.7,0-3.5,0-5.3
		c0-18.3,0-36.6,0-55s-0.1-36.6,0.1-55c0-4-1.3-5.3-5.1-5.2c-3,0.1-6-0.1-9-0.2c-40-0.5-79.4,4.7-118.3,13.5
		c-32.8,7.5-64.9,17.2-94.7,33.4C263.8,172.5,257,177.2,249.8,181.6z M621,182.2c-26.3-28.9-56.5-50.8-96.4-56.7
		c0,38,0,75.8,0,113.6C563.6,233.3,593.2,212.9,621,182.2z M121.6,119.7c0,0.7-0.1,1.1,0,1.4c0.4,0.9,0.7,1.9,1.2,2.7
		c6.7,13.6,16.3,24.9,29.3,32.7c8.5,5.1,17.8,8.9,26.9,12.8c6.7,2.9,10.4,7,10.4,13.1c0,6.1-3.7,10.6-10.5,13
		c-1.3,0.4-2.5,0.8-3.8,1.2c-22.1,8-39.9,21.1-51.2,42.2c-0.9,1.8-1.7,3.7-2.5,5.5c0.3,0.5,0.7,1,1,1.4c10.2-2.4,20.5-4,30.4-7.2
		c27.7-8.9,48.9-25.7,61.9-52.3c1.4-2.8,1.3-5.1,0-7.9c-12.1-24.8-31.7-41.1-57.2-50.7C145.9,123.2,133.9,120.7,121.6,119.7z"/>
	<path class="st0" d="M544.4,455.2c0,30.5-24.9,55.3-55.4,55.3c-30.5,0-55.4-24.8-55.5-55.2c-0.1-30.6,25.1-55.7,55.7-55.6
		C519.6,399.8,544.4,424.8,544.4,455.2z M460.1,455.2c0,16,12.9,29,28.9,29c15.8,0.1,29-13,29.2-28.9c0.2-16-13.1-29.2-29.2-29.1
		C472.8,426.3,460,439.1,460.1,455.2z"/>
</g>
</svg>
